<mxfile host="app.diagrams.net" modified="2024-02-08T11:00:54.743Z" agent="Mozilla/5.0 (Windows NT 10.0; Win64; x64) AppleWebKit/537.36 (KHTML, like Gecko) Chrome/121.0.0.0 Safari/537.36 Edg/121.0.0.0" etag="SOOQ5Y5qFL7_mPQOwEP2" version="23.1.1" type="device">
  <diagram name="Pagina-1" id="86XxUkd9Ytf5J9jopJS4">
    <mxGraphModel dx="1431" dy="813" grid="1" gridSize="10" guides="1" tooltips="1" connect="1" arrows="1" fold="1" page="1" pageScale="1" pageWidth="4681" pageHeight="3300" math="0" shadow="0">
      <root>
        <mxCell id="0" />
        <mxCell id="1" parent="0" />
        <mxCell id="ijPyet67MNjV_9AJ14ty-20" style="edgeStyle=orthogonalEdgeStyle;rounded=0;sketch=1;hachureGap=4;jiggle=2;curveFitting=1;orthogonalLoop=1;jettySize=auto;html=1;exitX=0.5;exitY=1;exitDx=0;exitDy=0;entryX=0.5;entryY=0;entryDx=0;entryDy=0;fontFamily=Architects Daughter;fontSource=https%3A%2F%2Ffonts.googleapis.com%2Fcss%3Ffamily%3DArchitects%2BDaughter;fontSize=16;" edge="1" parent="1" source="qhAOpf9wNqkCANdFUeo1-2" target="ijPyet67MNjV_9AJ14ty-19">
          <mxGeometry relative="1" as="geometry" />
        </mxCell>
        <mxCell id="qhAOpf9wNqkCANdFUeo1-2" value="Start" style="rounded=1;whiteSpace=wrap;html=1;shadow=0;fillColor=#f5f5f5;fontColor=#333333;strokeColor=#666666;sketch=1;curveFitting=1;jiggle=2;fontFamily=Architects Daughter;fontSource=https%3A%2F%2Ffonts.googleapis.com%2Fcss%3Ffamily%3DArchitects%2BDaughter;fontSize=18;" parent="1" vertex="1">
          <mxGeometry x="2460" y="10" width="170" height="90" as="geometry" />
        </mxCell>
        <mxCell id="ijPyet67MNjV_9AJ14ty-26" style="edgeStyle=orthogonalEdgeStyle;rounded=0;orthogonalLoop=1;jettySize=auto;html=1;exitX=0.5;exitY=1;exitDx=0;exitDy=0;entryX=0.5;entryY=0;entryDx=0;entryDy=0;sketch=1;curveFitting=1;jiggle=2;" edge="1" parent="1" source="ijPyet67MNjV_9AJ14ty-19" target="ijPyet67MNjV_9AJ14ty-25">
          <mxGeometry relative="1" as="geometry" />
        </mxCell>
        <mxCell id="ijPyet67MNjV_9AJ14ty-19" value="(Nieuwe) ronde starten" style="rounded=0;whiteSpace=wrap;html=1;sketch=1;hachureGap=4;jiggle=2;curveFitting=1;fontFamily=Architects Daughter;fontSource=https%3A%2F%2Ffonts.googleapis.com%2Fcss%3Ffamily%3DArchitects%2BDaughter;fontSize=18;fillColor=#f5f5f5;fontColor=#333333;strokeColor=#666666;" vertex="1" parent="1">
          <mxGeometry x="2458.75" y="190" width="172.5" height="90" as="geometry" />
        </mxCell>
        <mxCell id="ijPyet67MNjV_9AJ14ty-28" style="edgeStyle=orthogonalEdgeStyle;rounded=0;sketch=1;hachureGap=4;jiggle=2;curveFitting=1;orthogonalLoop=1;jettySize=auto;html=1;exitX=0.5;exitY=1;exitDx=0;exitDy=0;entryX=0.5;entryY=0;entryDx=0;entryDy=0;fontFamily=Architects Daughter;fontSource=https%3A%2F%2Ffonts.googleapis.com%2Fcss%3Ffamily%3DArchitects%2BDaughter;fontSize=16;" edge="1" parent="1" source="ijPyet67MNjV_9AJ14ty-25" target="ijPyet67MNjV_9AJ14ty-27">
          <mxGeometry relative="1" as="geometry" />
        </mxCell>
        <mxCell id="ijPyet67MNjV_9AJ14ty-25" value="&lt;p style=&quot;font-size: 18px;&quot;&gt;&lt;font style=&quot;font-size: 18px;&quot; face=&quot;Architects Daughter&quot;&gt;Getal raden tussen&lt;/font&gt;&lt;/p&gt;&lt;p style=&quot;font-size: 18px;&quot;&gt;&lt;font style=&quot;font-size: 18px;&quot; face=&quot;Architects Daughter&quot;&gt;de 1 en de 1000&lt;/font&gt;&lt;/p&gt;" style="shape=parallelogram;perimeter=parallelogramPerimeter;whiteSpace=wrap;html=1;fixedSize=1;sketch=1;curveFitting=1;jiggle=2;fillColor=#ffe6cc;strokeColor=#d79b00;fontSize=18;" vertex="1" parent="1">
          <mxGeometry x="2453.75" y="370" width="182.5" height="90" as="geometry" />
        </mxCell>
        <mxCell id="ijPyet67MNjV_9AJ14ty-32" value="Ja" style="edgeStyle=orthogonalEdgeStyle;rounded=0;sketch=1;hachureGap=4;jiggle=2;curveFitting=1;orthogonalLoop=1;jettySize=auto;html=1;exitX=0;exitY=0.5;exitDx=0;exitDy=0;entryX=1;entryY=0.5;entryDx=0;entryDy=0;fontFamily=Architects Daughter;fontSource=https%3A%2F%2Ffonts.googleapis.com%2Fcss%3Ffamily%3DArchitects%2BDaughter;fontSize=16;" edge="1" parent="1" source="ijPyet67MNjV_9AJ14ty-27" target="ijPyet67MNjV_9AJ14ty-31">
          <mxGeometry relative="1" as="geometry" />
        </mxCell>
        <mxCell id="ijPyet67MNjV_9AJ14ty-74" value="Nee" style="edgeStyle=orthogonalEdgeStyle;rounded=0;sketch=1;hachureGap=4;jiggle=2;curveFitting=1;orthogonalLoop=1;jettySize=auto;html=1;exitX=1;exitY=0.5;exitDx=0;exitDy=0;entryX=0;entryY=0.5;entryDx=0;entryDy=0;fontFamily=Architects Daughter;fontSource=https%3A%2F%2Ffonts.googleapis.com%2Fcss%3Ffamily%3DArchitects%2BDaughter;fontSize=16;" edge="1" parent="1" source="ijPyet67MNjV_9AJ14ty-27" target="ijPyet67MNjV_9AJ14ty-73">
          <mxGeometry relative="1" as="geometry" />
        </mxCell>
        <mxCell id="ijPyet67MNjV_9AJ14ty-27" value="Getal geraden?" style="rhombus;whiteSpace=wrap;html=1;sketch=1;hachureGap=4;jiggle=2;curveFitting=1;fontFamily=Architects Daughter;fontSource=https%3A%2F%2Ffonts.googleapis.com%2Fcss%3Ffamily%3DArchitects%2BDaughter;fontSize=18;fillColor=#f5f5f5;fontColor=#333333;strokeColor=#666666;" vertex="1" parent="1">
          <mxGeometry x="2476.87" y="550" width="136.25" height="130" as="geometry" />
        </mxCell>
        <mxCell id="ijPyet67MNjV_9AJ14ty-55" style="edgeStyle=orthogonalEdgeStyle;rounded=0;sketch=1;hachureGap=4;jiggle=2;curveFitting=1;orthogonalLoop=1;jettySize=auto;html=1;exitX=0.5;exitY=1;exitDx=0;exitDy=0;entryX=0.5;entryY=0;entryDx=0;entryDy=0;fontFamily=Architects Daughter;fontSource=https%3A%2F%2Ffonts.googleapis.com%2Fcss%3Ffamily%3DArchitects%2BDaughter;fontSize=16;" edge="1" parent="1" source="ijPyet67MNjV_9AJ14ty-31" target="ijPyet67MNjV_9AJ14ty-54">
          <mxGeometry relative="1" as="geometry" />
        </mxCell>
        <mxCell id="ijPyet67MNjV_9AJ14ty-31" value="Goed geraden" style="rounded=1;whiteSpace=wrap;html=1;sketch=1;hachureGap=4;jiggle=2;curveFitting=1;fontFamily=Architects Daughter;fontSource=https%3A%2F%2Ffonts.googleapis.com%2Fcss%3Ffamily%3DArchitects%2BDaughter;fontSize=18;fillColor=#d5e8d4;strokeColor=#82b366;" vertex="1" parent="1">
          <mxGeometry x="2160" y="570" width="171.25" height="90" as="geometry" />
        </mxCell>
        <mxCell id="ijPyet67MNjV_9AJ14ty-40" style="edgeStyle=orthogonalEdgeStyle;rounded=0;sketch=1;hachureGap=4;jiggle=2;curveFitting=1;orthogonalLoop=1;jettySize=auto;html=1;exitX=0.5;exitY=1;exitDx=0;exitDy=0;entryX=0.5;entryY=0;entryDx=0;entryDy=0;fontFamily=Architects Daughter;fontSource=https%3A%2F%2Ffonts.googleapis.com%2Fcss%3Ffamily%3DArchitects%2BDaughter;fontSize=16;" edge="1" parent="1" source="ijPyet67MNjV_9AJ14ty-34" target="ijPyet67MNjV_9AJ14ty-39">
          <mxGeometry relative="1" as="geometry" />
        </mxCell>
        <mxCell id="ijPyet67MNjV_9AJ14ty-34" value="Score + 1 of score + 0" style="rounded=0;whiteSpace=wrap;html=1;sketch=1;hachureGap=4;jiggle=2;curveFitting=1;fontFamily=Architects Daughter;fontSource=https%3A%2F%2Ffonts.googleapis.com%2Fcss%3Ffamily%3DArchitects%2BDaughter;fontSize=18;fillColor=#f5f5f5;strokeColor=#666666;fontColor=#333333;" vertex="1" parent="1">
          <mxGeometry x="2165.25" y="990" width="158.88" height="90" as="geometry" />
        </mxCell>
        <mxCell id="ijPyet67MNjV_9AJ14ty-43" style="edgeStyle=orthogonalEdgeStyle;rounded=0;sketch=1;hachureGap=4;jiggle=2;curveFitting=1;orthogonalLoop=1;jettySize=auto;html=1;exitX=0;exitY=0.5;exitDx=0;exitDy=0;entryX=1;entryY=0.5;entryDx=0;entryDy=0;fontFamily=Architects Daughter;fontSource=https%3A%2F%2Ffonts.googleapis.com%2Fcss%3Ffamily%3DArchitects%2BDaughter;fontSize=16;" edge="1" parent="1" source="ijPyet67MNjV_9AJ14ty-39" target="ijPyet67MNjV_9AJ14ty-42">
          <mxGeometry relative="1" as="geometry" />
        </mxCell>
        <mxCell id="ijPyet67MNjV_9AJ14ty-39" value="Score van het aantal gespeelde rondes" style="rounded=1;whiteSpace=wrap;html=1;sketch=1;hachureGap=4;jiggle=2;curveFitting=1;fontFamily=Architects Daughter;fontSource=https%3A%2F%2Ffonts.googleapis.com%2Fcss%3Ffamily%3DArchitects%2BDaughter;fontSize=18;fillColor=#d5e8d4;strokeColor=#82b366;" vertex="1" parent="1">
          <mxGeometry x="2156.25" y="1200" width="178.75" height="90" as="geometry" />
        </mxCell>
        <mxCell id="ijPyet67MNjV_9AJ14ty-47" value="&amp;lt; 20" style="edgeStyle=orthogonalEdgeStyle;rounded=0;sketch=1;hachureGap=4;jiggle=2;curveFitting=1;orthogonalLoop=1;jettySize=auto;html=1;exitX=0.5;exitY=0;exitDx=0;exitDy=0;entryX=0.5;entryY=1;entryDx=0;entryDy=0;fontFamily=Architects Daughter;fontSource=https%3A%2F%2Ffonts.googleapis.com%2Fcss%3Ffamily%3DArchitects%2BDaughter;fontSize=16;" edge="1" parent="1" source="ijPyet67MNjV_9AJ14ty-42" target="ijPyet67MNjV_9AJ14ty-46">
          <mxGeometry relative="1" as="geometry" />
        </mxCell>
        <mxCell id="ijPyet67MNjV_9AJ14ty-69" value="== 20" style="edgeStyle=orthogonalEdgeStyle;rounded=0;sketch=1;hachureGap=4;jiggle=2;curveFitting=1;orthogonalLoop=1;jettySize=auto;html=1;exitX=0.5;exitY=1;exitDx=0;exitDy=0;entryX=1;entryY=0.5;entryDx=0;entryDy=0;fontFamily=Architects Daughter;fontSource=https%3A%2F%2Ffonts.googleapis.com%2Fcss%3Ffamily%3DArchitects%2BDaughter;fontSize=16;" edge="1" parent="1" source="ijPyet67MNjV_9AJ14ty-42" target="ijPyet67MNjV_9AJ14ty-44">
          <mxGeometry relative="1" as="geometry" />
        </mxCell>
        <mxCell id="ijPyet67MNjV_9AJ14ty-42" value="Aantal rondes gespeeld?" style="rhombus;whiteSpace=wrap;html=1;sketch=1;hachureGap=4;jiggle=2;curveFitting=1;fontFamily=Architects Daughter;fontSource=https%3A%2F%2Ffonts.googleapis.com%2Fcss%3Ffamily%3DArchitects%2BDaughter;fontSize=18;fillColor=#f5f5f5;fontColor=#333333;strokeColor=#666666;" vertex="1" parent="1">
          <mxGeometry x="1840" y="840" width="130" height="130" as="geometry" />
        </mxCell>
        <mxCell id="ijPyet67MNjV_9AJ14ty-44" value="Totaal score" style="rounded=1;whiteSpace=wrap;html=1;sketch=1;hachureGap=4;jiggle=2;curveFitting=1;fontFamily=Architects Daughter;fontSource=https%3A%2F%2Ffonts.googleapis.com%2Fcss%3Ffamily%3DArchitects%2BDaughter;fontSize=18;fillColor=#d5e8d4;strokeColor=#82b366;" vertex="1" parent="1">
          <mxGeometry x="1520" y="1030" width="180" height="90" as="geometry" />
        </mxCell>
        <mxCell id="ijPyet67MNjV_9AJ14ty-86" value="Nee" style="edgeStyle=orthogonalEdgeStyle;rounded=0;sketch=1;hachureGap=4;jiggle=2;curveFitting=1;orthogonalLoop=1;jettySize=auto;html=1;exitX=0;exitY=0.5;exitDx=0;exitDy=0;entryX=0.5;entryY=0;entryDx=0;entryDy=0;fontFamily=Architects Daughter;fontSource=https%3A%2F%2Ffonts.googleapis.com%2Fcss%3Ffamily%3DArchitects%2BDaughter;fontSize=16;" edge="1" parent="1" source="ijPyet67MNjV_9AJ14ty-46" target="ijPyet67MNjV_9AJ14ty-44">
          <mxGeometry relative="1" as="geometry" />
        </mxCell>
        <mxCell id="ijPyet67MNjV_9AJ14ty-87" value="Ja" style="edgeStyle=orthogonalEdgeStyle;rounded=0;sketch=1;hachureGap=4;jiggle=2;curveFitting=1;orthogonalLoop=1;jettySize=auto;html=1;exitX=1;exitY=0.5;exitDx=0;exitDy=0;entryX=0;entryY=0.5;entryDx=0;entryDy=0;fontFamily=Architects Daughter;fontSource=https%3A%2F%2Ffonts.googleapis.com%2Fcss%3Ffamily%3DArchitects%2BDaughter;fontSize=16;" edge="1" parent="1" source="ijPyet67MNjV_9AJ14ty-46" target="ijPyet67MNjV_9AJ14ty-19">
          <mxGeometry relative="1" as="geometry">
            <Array as="points">
              <mxPoint x="2150" y="515" />
              <mxPoint x="2150" y="235" />
            </Array>
          </mxGeometry>
        </mxCell>
        <mxCell id="ijPyet67MNjV_9AJ14ty-46" value="Verder spelen?" style="rhombus;whiteSpace=wrap;html=1;sketch=1;hachureGap=4;jiggle=2;curveFitting=1;fontFamily=Architects Daughter;fontSource=https%3A%2F%2Ffonts.googleapis.com%2Fcss%3Ffamily%3DArchitects%2BDaughter;fontSize=18;fillColor=#f5f5f5;fontColor=#333333;strokeColor=#666666;" vertex="1" parent="1">
          <mxGeometry x="1840" y="450" width="130" height="130" as="geometry" />
        </mxCell>
        <mxCell id="ijPyet67MNjV_9AJ14ty-56" style="edgeStyle=orthogonalEdgeStyle;rounded=0;sketch=1;hachureGap=4;jiggle=2;curveFitting=1;orthogonalLoop=1;jettySize=auto;html=1;exitX=0.5;exitY=1;exitDx=0;exitDy=0;entryX=0.5;entryY=0;entryDx=0;entryDy=0;fontFamily=Architects Daughter;fontSource=https%3A%2F%2Ffonts.googleapis.com%2Fcss%3Ffamily%3DArchitects%2BDaughter;fontSize=16;" edge="1" parent="1" source="ijPyet67MNjV_9AJ14ty-54" target="ijPyet67MNjV_9AJ14ty-34">
          <mxGeometry relative="1" as="geometry" />
        </mxCell>
        <mxCell id="ijPyet67MNjV_9AJ14ty-54" value="De ronde is afgelopen" style="rounded=0;whiteSpace=wrap;html=1;sketch=1;hachureGap=4;jiggle=2;curveFitting=1;fontFamily=Architects Daughter;fontSource=https%3A%2F%2Ffonts.googleapis.com%2Fcss%3Ffamily%3DArchitects%2BDaughter;fontSize=18;fillColor=#f5f5f5;fontColor=#333333;strokeColor=#666666;" vertex="1" parent="1">
          <mxGeometry x="2160" y="780" width="169.38" height="90" as="geometry" />
        </mxCell>
        <mxCell id="ijPyet67MNjV_9AJ14ty-92" style="edgeStyle=orthogonalEdgeStyle;rounded=0;sketch=1;hachureGap=4;jiggle=2;curveFitting=1;orthogonalLoop=1;jettySize=auto;html=1;exitX=0.5;exitY=1;exitDx=0;exitDy=0;entryX=0.5;entryY=0;entryDx=0;entryDy=0;fontFamily=Architects Daughter;fontSource=https%3A%2F%2Ffonts.googleapis.com%2Fcss%3Ffamily%3DArchitects%2BDaughter;fontSize=16;" edge="1" parent="1" source="ijPyet67MNjV_9AJ14ty-73" target="ijPyet67MNjV_9AJ14ty-76">
          <mxGeometry relative="1" as="geometry" />
        </mxCell>
        <mxCell id="ijPyet67MNjV_9AJ14ty-73" value="Fout geraden" style="rounded=1;whiteSpace=wrap;html=1;sketch=1;hachureGap=4;jiggle=2;curveFitting=1;fontFamily=Architects Daughter;fontSource=https%3A%2F%2Ffonts.googleapis.com%2Fcss%3Ffamily%3DArchitects%2BDaughter;fontSize=18;fillColor=#f8cecc;strokeColor=#b85450;" vertex="1" parent="1">
          <mxGeometry x="2835.63" y="570" width="178.75" height="90" as="geometry" />
        </mxCell>
        <mxCell id="ijPyet67MNjV_9AJ14ty-96" style="edgeStyle=orthogonalEdgeStyle;rounded=0;sketch=1;hachureGap=4;jiggle=2;curveFitting=1;orthogonalLoop=1;jettySize=auto;html=1;exitX=0.5;exitY=1;exitDx=0;exitDy=0;entryX=0.5;entryY=1;entryDx=0;entryDy=0;fontFamily=Architects Daughter;fontSource=https%3A%2F%2Ffonts.googleapis.com%2Fcss%3Ffamily%3DArchitects%2BDaughter;fontSize=16;" edge="1" parent="1" source="ijPyet67MNjV_9AJ14ty-76" target="ijPyet67MNjV_9AJ14ty-78">
          <mxGeometry relative="1" as="geometry">
            <Array as="points">
              <mxPoint x="2925" y="1120" />
              <mxPoint x="3244" y="1120" />
            </Array>
          </mxGeometry>
        </mxCell>
        <mxCell id="ijPyet67MNjV_9AJ14ty-76" value="Hoger of lager" style="rounded=0;whiteSpace=wrap;html=1;sketch=1;hachureGap=4;jiggle=2;curveFitting=1;fontFamily=Architects Daughter;fontSource=https%3A%2F%2Ffonts.googleapis.com%2Fcss%3Ffamily%3DArchitects%2BDaughter;fontSize=18;fillColor=#f5f5f5;fontColor=#333333;strokeColor=#666666;" vertex="1" parent="1">
          <mxGeometry x="2830.01" y="800" width="190" height="100" as="geometry" />
        </mxCell>
        <mxCell id="ijPyet67MNjV_9AJ14ty-83" value="Ja" style="edgeStyle=orthogonalEdgeStyle;rounded=0;sketch=1;hachureGap=4;jiggle=2;curveFitting=1;orthogonalLoop=1;jettySize=auto;html=1;exitX=0.5;exitY=0;exitDx=0;exitDy=0;entryX=0.5;entryY=1;entryDx=0;entryDy=0;fontFamily=Architects Daughter;fontSource=https%3A%2F%2Ffonts.googleapis.com%2Fcss%3Ffamily%3DArchitects%2BDaughter;fontSize=16;" edge="1" parent="1" source="ijPyet67MNjV_9AJ14ty-78" target="ijPyet67MNjV_9AJ14ty-81">
          <mxGeometry relative="1" as="geometry" />
        </mxCell>
        <mxCell id="ijPyet67MNjV_9AJ14ty-100" value="Nee" style="edgeStyle=orthogonalEdgeStyle;rounded=0;sketch=1;hachureGap=4;jiggle=2;curveFitting=1;orthogonalLoop=1;jettySize=auto;html=1;exitX=0;exitY=0.5;exitDx=0;exitDy=0;entryX=0.5;entryY=1;entryDx=0;entryDy=0;fontFamily=Architects Daughter;fontSource=https%3A%2F%2Ffonts.googleapis.com%2Fcss%3Ffamily%3DArchitects%2BDaughter;fontSize=16;" edge="1" parent="1" source="ijPyet67MNjV_9AJ14ty-78" target="ijPyet67MNjV_9AJ14ty-99">
          <mxGeometry relative="1" as="geometry" />
        </mxCell>
        <mxCell id="ijPyet67MNjV_9AJ14ty-78" value="Verschil &amp;lt; 50?" style="rhombus;whiteSpace=wrap;html=1;sketch=1;hachureGap=4;jiggle=2;curveFitting=1;fontFamily=Architects Daughter;fontSource=https%3A%2F%2Ffonts.googleapis.com%2Fcss%3Ffamily%3DArchitects%2BDaughter;fontSize=18;fillColor=#f5f5f5;fontColor=#333333;strokeColor=#666666;" vertex="1" parent="1">
          <mxGeometry x="3180" y="940" width="128.44" height="130" as="geometry" />
        </mxCell>
        <mxCell id="ijPyet67MNjV_9AJ14ty-91" value="Ja" style="edgeStyle=orthogonalEdgeStyle;rounded=0;sketch=1;hachureGap=4;jiggle=2;curveFitting=1;orthogonalLoop=1;jettySize=auto;html=1;exitX=0.5;exitY=0;exitDx=0;exitDy=0;entryX=0.5;entryY=1;entryDx=0;entryDy=0;fontFamily=Architects Daughter;fontSource=https%3A%2F%2Ffonts.googleapis.com%2Fcss%3Ffamily%3DArchitects%2BDaughter;fontSize=16;" edge="1" parent="1" source="ijPyet67MNjV_9AJ14ty-81" target="ijPyet67MNjV_9AJ14ty-90">
          <mxGeometry relative="1" as="geometry" />
        </mxCell>
        <mxCell id="ijPyet67MNjV_9AJ14ty-94" value="Nee" style="edgeStyle=orthogonalEdgeStyle;rounded=0;sketch=1;hachureGap=4;jiggle=2;curveFitting=1;orthogonalLoop=1;jettySize=auto;html=1;exitX=1;exitY=0.5;exitDx=0;exitDy=0;entryX=0.5;entryY=1;entryDx=0;entryDy=0;fontFamily=Architects Daughter;fontSource=https%3A%2F%2Ffonts.googleapis.com%2Fcss%3Ffamily%3DArchitects%2BDaughter;fontSize=16;" edge="1" parent="1" source="ijPyet67MNjV_9AJ14ty-81" target="ijPyet67MNjV_9AJ14ty-93">
          <mxGeometry relative="1" as="geometry" />
        </mxCell>
        <mxCell id="ijPyet67MNjV_9AJ14ty-81" value="Verschil &amp;lt; 20?" style="rhombus;whiteSpace=wrap;html=1;sketch=1;hachureGap=4;jiggle=2;curveFitting=1;fontFamily=Architects Daughter;fontSource=https%3A%2F%2Ffonts.googleapis.com%2Fcss%3Ffamily%3DArchitects%2BDaughter;fontSize=18;fillColor=#f5f5f5;fontColor=#333333;strokeColor=#666666;" vertex="1" parent="1">
          <mxGeometry x="3330" y="700" width="128.44" height="130" as="geometry" />
        </mxCell>
        <mxCell id="ijPyet67MNjV_9AJ14ty-101" style="edgeStyle=orthogonalEdgeStyle;rounded=0;sketch=1;hachureGap=4;jiggle=2;curveFitting=1;orthogonalLoop=1;jettySize=auto;html=1;exitX=0.5;exitY=0;exitDx=0;exitDy=0;entryX=1;entryY=0.5;entryDx=0;entryDy=0;fontFamily=Architects Daughter;fontSource=https%3A%2F%2Ffonts.googleapis.com%2Fcss%3Ffamily%3DArchitects%2BDaughter;fontSize=16;" edge="1" parent="1" source="ijPyet67MNjV_9AJ14ty-90" target="ijPyet67MNjV_9AJ14ty-99">
          <mxGeometry relative="1" as="geometry" />
        </mxCell>
        <mxCell id="ijPyet67MNjV_9AJ14ty-90" value="Je bent heel warm" style="rounded=0;whiteSpace=wrap;html=1;sketch=1;hachureGap=4;jiggle=2;curveFitting=1;fontFamily=Architects Daughter;fontSource=https%3A%2F%2Ffonts.googleapis.com%2Fcss%3Ffamily%3DArchitects%2BDaughter;fontSize=18;fillColor=#f5f5f5;fontColor=#333333;strokeColor=#666666;" vertex="1" parent="1">
          <mxGeometry x="3304.22" y="480" width="180" height="90" as="geometry" />
        </mxCell>
        <mxCell id="ijPyet67MNjV_9AJ14ty-102" style="edgeStyle=orthogonalEdgeStyle;rounded=0;sketch=1;hachureGap=4;jiggle=2;curveFitting=1;orthogonalLoop=1;jettySize=auto;html=1;exitX=0.5;exitY=0;exitDx=0;exitDy=0;entryX=1;entryY=0.5;entryDx=0;entryDy=0;fontFamily=Architects Daughter;fontSource=https%3A%2F%2Ffonts.googleapis.com%2Fcss%3Ffamily%3DArchitects%2BDaughter;fontSize=16;" edge="1" parent="1" source="ijPyet67MNjV_9AJ14ty-93" target="ijPyet67MNjV_9AJ14ty-99">
          <mxGeometry relative="1" as="geometry" />
        </mxCell>
        <mxCell id="ijPyet67MNjV_9AJ14ty-93" value="Je bent warm" style="rounded=0;whiteSpace=wrap;html=1;sketch=1;hachureGap=4;jiggle=2;curveFitting=1;fontFamily=Architects Daughter;fontSource=https%3A%2F%2Ffonts.googleapis.com%2Fcss%3Ffamily%3DArchitects%2BDaughter;fontSize=18;fillColor=#f5f5f5;fontColor=#333333;strokeColor=#666666;" vertex="1" parent="1">
          <mxGeometry x="3620" y="490" width="189.22" height="90" as="geometry" />
        </mxCell>
        <mxCell id="ijPyet67MNjV_9AJ14ty-104" value="&amp;lt; 10" style="edgeStyle=orthogonalEdgeStyle;rounded=0;sketch=1;hachureGap=4;jiggle=2;curveFitting=1;orthogonalLoop=1;jettySize=auto;html=1;exitX=0;exitY=0.5;exitDx=0;exitDy=0;entryX=1;entryY=0.5;entryDx=0;entryDy=0;fontFamily=Architects Daughter;fontSource=https%3A%2F%2Ffonts.googleapis.com%2Fcss%3Ffamily%3DArchitects%2BDaughter;fontSize=16;" edge="1" parent="1" source="ijPyet67MNjV_9AJ14ty-99" target="ijPyet67MNjV_9AJ14ty-25">
          <mxGeometry relative="1" as="geometry" />
        </mxCell>
        <mxCell id="ijPyet67MNjV_9AJ14ty-110" value="== 20" style="edgeStyle=orthogonalEdgeStyle;rounded=0;sketch=1;hachureGap=4;jiggle=2;curveFitting=1;orthogonalLoop=1;jettySize=auto;html=1;exitX=0;exitY=1;exitDx=0;exitDy=0;entryX=1;entryY=0.5;entryDx=0;entryDy=0;fontFamily=Architects Daughter;fontSource=https%3A%2F%2Ffonts.googleapis.com%2Fcss%3Ffamily%3DArchitects%2BDaughter;fontSize=16;" edge="1" parent="1" source="ijPyet67MNjV_9AJ14ty-99" target="ijPyet67MNjV_9AJ14ty-54">
          <mxGeometry relative="1" as="geometry">
            <Array as="points">
              <mxPoint x="3080" y="449" />
              <mxPoint x="3080" y="720" />
              <mxPoint x="2540" y="720" />
              <mxPoint x="2540" y="825" />
            </Array>
          </mxGeometry>
        </mxCell>
        <mxCell id="ijPyet67MNjV_9AJ14ty-99" value="Aantal keer geraden?" style="rhombus;whiteSpace=wrap;html=1;sketch=1;hachureGap=4;jiggle=2;curveFitting=1;fontFamily=Architects Daughter;fontSource=https%3A%2F%2Ffonts.googleapis.com%2Fcss%3Ffamily%3DArchitects%2BDaughter;fontSize=18;fillColor=#f5f5f5;fontColor=#333333;strokeColor=#666666;" vertex="1" parent="1">
          <mxGeometry x="3049.22" y="347.5" width="130.78" height="135" as="geometry" />
        </mxCell>
      </root>
    </mxGraphModel>
  </diagram>
</mxfile>
